<?xml version="1.0" encoding="utf-8"?>
<!-- Generator: Adobe Illustrator 18.0.0, SVG Export Plug-In . SVG Version: 6.00 Build 0)  -->
<!DOCTYPE svg PUBLIC "-//W3C//DTD SVG 1.1//EN" "http://www.w3.org/Graphics/SVG/1.1/DTD/svg11.dtd">
<svg version="1.1" id="Layer_1" xmlns="http://www.w3.org/2000/svg" xmlns:xlink="http://www.w3.org/1999/xlink" x="0px" y="0px"
	 viewBox="0 0 1400 980" enable-background="new 0 0 1400 980" xml:space="preserve">
<g>
	<rect x="0.3" fill="#FFFFFF" width="1399.7" height="980"/>
	<g>
		<g>
			<polygon fill="#F5B186" points="437.2,192.5 447.1,219.3 464.9,250.5 448.4,250.5 426.1,222.9 415,202.3 			"/>
			<polygon fill="#414A5E" points="423.5,276.1 350.6,276.1 336.4,142.2 423.5,142.2 			"/>
			<path fill="#5E6A84" d="M336.4,142.2l-16.4,54.9l37.5,7.2l9.5-27.1c6-17.1-6.7-35-24.8-35H336.4z"/>
			<polygon fill="#323949" points="423.5,198.6 437.2,192.5 423.5,142.2 			"/>
			<polygon fill="#5E6A84" points="378.6,142.2 395.6,162.4 410.4,142.2 			"/>
			<polygon fill="#F5B186" points="320.1,197.1 311.3,228.1 323.3,271 336.4,271 334.4,224.6 346.6,202.2 			"/>
			<polygon fill="#45699C" points="350.6,276.1 344.6,368.1 330.8,432.4 352.5,439 380.3,367.2 394.5,276.1 			"/>
			<rect x="378.6" y="124.4" fill="#F5B186" width="20.3" height="17.7"/>
			<path fill="#F5B186" d="M406.8,83.9v49.5h-8.1c-19.6,0-35.5-15.9-35.5-35.5V83.9H406.8z"/>
			<polygon fill="#4E74B3" points="350.6,276.1 398.3,361.6 420,439.5 445.4,435.2 423.5,276.1 378.6,276.1 			"/>
			<path fill="#F5B186" d="M323.1,270l3.2,13.9l17.9-4.1l-2-8.8c-0.6-2.8-3.4-4.6-6.2-3.9l0,0L323.1,270z"/>
			<path fill="#F5B186" d="M335.3,293.9L335.3,293.9c-3.5,0.8-7.1-1.4-7.9-5l-1.2-5.1l12.8-2.9l1.2,5.1
				C341,289.6,338.8,293.1,335.3,293.9z"/>
			<path fill="#F5B186" d="M343.1,287L343.1,287c-1.4,0.3-2.8-0.6-3.1-2l-0.9-4.1l5.1-1.2l0.9,4.1
				C345.4,285.3,344.5,286.7,343.1,287z"/>
			<path fill="#F5B186" d="M464.9,250.5l7,9.8v1.3c0,3.5-2.8,6.3-6.3,6.3h-2.9l0,0h-5.9c-2.3,0-4.6-0.9-6.2-2.6l0,0
				c-1.7-1.7-2.6-3.9-2.6-6.2v-8.4H464.9z"/>
			<path fill="#7B4629" d="M412.7,92.1c0,0-18.6,3.1-27.6,4.9v6.6h-3.8c0,0-2.2-4.7-5.6-5c-7.5-0.6-7.8,12.8,3,15.9V127
				c0,0-19-5.5-19-32.1c0,0-1.3-23.2,23.5-25.7C411.5,66.3,412.7,92.1,412.7,92.1z"/>
			<path fill="#7B4629" d="M330.9,432.5l-3.8,14.5l23.5,9.2h18.6c0,0-7.1-10.6-19.1-10.6l-2-7.9L330.9,432.5z"/>
			<path fill="#7B4629" d="M422,439.2l3.7,15.7l44.1-7.4c0,0-3.3-7.3-18-5.3l-9.5-6.5L422,439.2z"/>
		</g>
		<g>
			<path fill="#7B4629" d="M629.4,439.8l1.5,16.3h44.2c0,0-2-7.7-16.8-8.3l-8.3-8L629.4,439.8z"/>
			<path fill="#7B4629" d="M552.1,418.8l-8.5,12.9l36.7,24.5c0,0-1.4-16.6-13.1-19.3l-0.1-8.1L552.1,418.8z"/>
			<polygon fill="#F5B186" points="664,193.9 679.4,261.3 662.9,261.3 652.6,225.3 643.9,202.3 			"/>
			<polygon fill="#414A5E" points="652.4,276.1 579.5,276.1 565.4,142.2 652.4,142.2 			"/>
			<polygon fill="#323949" points="652.4,198.6 664,193.9 652.4,142.2 			"/>
			<polygon fill="#5E6A84" points="607.5,142.2 624.5,162.4 639.3,142.2 			"/>
			<polygon fill="#F5B186" points="569.3,201.4 573.3,271 586.5,271 594.5,201.4 			"/>
			<polygon fill="#45699C" points="579.5,276.1 579.7,373.2 550.4,418.8 569.4,430.5 615.4,372.3 623.4,276.1 			"/>
			<rect x="607.5" y="124.4" fill="#F5B186" width="20.3" height="17.7"/>
			<path fill="#F5B186" d="M635.8,83.9v49.5h-8.1c-19.6,0-35.5-15.9-35.5-35.5V83.9H635.8z"/>
			<polygon fill="#4E74B3" points="579.5,276.1 621.2,361.6 627.6,440.3 652.9,440.3 652.4,276.1 607.5,276.1 			"/>
			<path fill="#F5B186" d="M573.1,268.9l0.1,14.3l18.4-0.1l0-9.1c0-2.9-2.3-5.2-5.2-5.2l0,0L573.1,268.9z"/>
			<path fill="#F5B186" d="M579.8,295L579.8,295c-3.6,0-6.6-2.9-6.6-6.6l0-5.2l13.2,0l0,5.2C586.4,292,583.4,295,579.8,295z"/>
			<path fill="#F5B186" d="M589,289.9L589,289.9c-1.4,0-2.6-1.2-2.6-2.6l0-4.2l5.2,0l0,4.2C591.6,288.8,590.4,289.9,589,289.9z"/>
			<path fill="#F5B186" d="M685.1,267.4l1.5,6.2v1.6c0,4.3-3.5,7.9-7.9,7.9h-3.6l0,0h-1.5c-2.9,0-5.8-1.2-7.8-3.2v0
				c-2.1-2.1-3.2-4.9-3.2-7.8v-10.6h15C681.1,261.3,684.3,263.8,685.1,267.4z"/>
			<path fill="#7B4629" d="M641.6,92.1c0,0-18.6,3.1-27.6,4.9v6.6h-3.8c0,0-2.2-4.7-5.6-5c-7.5-0.6-7.8,12.8,3,15.9V127
				c0,0-19-5.5-19-32.1c0,0-1.3-23.2,23.5-25.7C640.4,66.3,641.6,92.1,641.6,92.1z"/>
			<path fill="#5E6A84" d="M565.4,142.2v60h32l3.2-17.8C604.6,162.4,587.7,142.2,565.4,142.2L565.4,142.2z"/>
		</g>
		<rect x="223.3" y="456.1" fill="#F5B186" width="974.9" height="6"/>
		<rect x="232.7" y="890.7" fill="#F5B186" width="974.9" height="6"/>
		<g>
			<g>
				<polygon fill="#F5B186" points="1002.4,183.2 1003.7,252.9 1016.8,253.4 1027.6,184.2 				"/>
				<path fill="#F5B186" d="M1003.6,250.9l-0.5,14.3l18.3,0.7l0.3-9.1c0.1-2.9-2.1-5.3-5-5.4l0,0L1003.6,250.9z"/>
				<path fill="#F5B186" d="M1009.2,277.1L1009.2,277.1c-3.6-0.1-6.5-3.2-6.3-6.8l0.2-5.2l13.1,0.5l-0.2,5.2
					C1015.9,274.4,1012.8,277.3,1009.2,277.1z"/>
				<path fill="#F5B186" d="M1018.6,272.4L1018.6,272.4c-1.4-0.1-2.6-1.3-2.5-2.7l0.1-4.2l5.2,0.2l-0.1,4.2
					C1021.2,271.4,1020,272.5,1018.6,272.4z"/>
			</g>
			<path fill="#7B4629" d="M1036.2,439.7l-3.7,16.6h47.3c0,0-0.2-8.1-15.5-8.7l-6.7-7.7L1036.2,439.7z"/>
			<path fill="#7B4629" d="M1026.9,418.8l-8.5,12.9l36.7,24.5c0,0-1.4-16.6-13.1-19.3l-0.1-8.1L1026.9,418.8z"/>
			<polygon fill="#414A5E" points="1084.4,276.1 1011.5,276.1 997.3,142.2 1084.4,142.2 			"/>
			<polygon fill="#5E6A84" points="1039.5,142.2 1056.5,162.4 1071.3,142.2 			"/>
			<polygon fill="#F5B186" points="1015.8,217.2 1035.3,241.8 1072.7,255 1083.4,247.4 1049.9,227.5 1036.4,202.6 			"/>
			<polygon fill="#45699C" points="1011.5,276.1 1058.9,373.4 1025.2,418.8 1044.2,430.5 1094.5,372.5 1055.4,276.1 			"/>
			<rect x="1039.5" y="124.4" fill="#F5B186" width="20.3" height="17.7"/>
			<path fill="#F5B186" d="M1067.7,83.9v49.5h-8.1c-19.6,0-35.5-15.9-35.5-35.5V83.9H1067.7z"/>
			<polygon fill="#4E74B3" points="1011.5,276.1 1053.2,361.6 1035.2,440.3 1060.5,440.3 1089.8,360.4 1084.4,276.1 1039.5,276.1 
							"/>
			<path fill="#F5B186" d="M1071.6,254.6l13.3,5.1l6.6-17.1l-8.5-3.3c-2.7-1-5.7,0.3-6.7,3l0,0L1071.6,254.6z"/>
			<path fill="#F5B186" d="M1098.3,257.8L1098.3,257.8c-1.3,3.4-5.1,5.1-8.5,3.8l-4.9-1.9l4.7-12.3l4.9,1.9
				C1097.9,250.6,1099.6,254.4,1098.3,257.8z"/>
			<path fill="#F5B186" d="M1096.9,247.5L1096.9,247.5c-0.5,1.3-2,2-3.4,1.5l-3.9-1.5l1.9-4.9l3.9,1.5
				C1096.8,244.6,1097.4,246.1,1096.9,247.5z"/>
			<path fill="#7B4629" d="M1073.6,92.1c0,0-18.6,3.1-27.6,4.9v6.6h-3.8c0,0-2.2-4.7-5.6-5c-7.5-0.6-7.8,12.8,3,15.9V127
				c0,0-19-5.5-19-32.1c0,0-1.3-23.2,23.5-25.7C1072.4,66.3,1073.6,92.1,1073.6,92.1z"/>
			<path fill="#5E6A84" d="M997.3,142.2l8.6,81.9l30.4-21.4l-4.7-30.9C1029.1,154.7,1014.5,142.2,997.3,142.2L997.3,142.2z"/>
			<path fill="#F5B186" d="M1076.3,242.3l-4.7,12.3L1076.3,242.3z"/>
		</g>
		<g>
			<g>
				<polygon fill="#F5B186" points="339.5,615.7 330.2,684.7 343.1,687.2 364.3,620.5 				"/>
				<path fill="#F5B186" d="M330.4,682.7l-2.7,14l18,3.4l1.7-8.9c0.5-2.8-1.3-5.6-4.1-6.1l0,0L330.4,682.7z"/>
				<path fill="#F5B186" d="M332,709.5L332,709.5c-3.6-0.7-5.9-4.1-5.2-7.7l1-5.1l12.9,2.5l-1,5.1C339,707.9,335.6,710.2,332,709.5z
					"/>
				<path fill="#F5B186" d="M342,706.3L342,706.3c-1.4-0.3-2.3-1.6-2.1-3l0.8-4.1l5.1,1l-0.8,4.1C344.7,705.7,343.4,706.6,342,706.3
					z"/>
			</g>
			<path fill="#7B4629" d="M349.6,874.2l-3.7,16.6h47.3c0,0-0.2-8.1-15.5-8.7l-6.7-7.7L349.6,874.2z"/>
			<path fill="#7B4629" d="M377.1,853.3l-8.5,12.9l36.7,24.5c0,0-1.4-16.6-13.1-19.3l-0.1-8.1L377.1,853.3z"/>
			<polygon fill="#414A5E" points="421.4,710.6 348.5,710.6 334.4,576.7 421.4,576.7 			"/>
			<polygon fill="#5E6A84" points="376.5,576.7 393.5,596.9 408.3,576.7 			"/>
			<polygon fill="#F5B186" points="358.7,641.9 371.1,671.1 412.1,680.8 422.6,672.9 386.6,650.1 382.9,628.9 			"/>
			<polygon fill="#45699C" points="376,710.6 402.6,802.7 375.2,853.3 394.2,865 438.3,801.8 419.9,710.6 			"/>
			<rect x="376.5" y="559" fill="#F5B186" width="20.3" height="17.7"/>
			<path fill="#F5B186" d="M404.8,518.4v49.5h-8.1c-19.6,0-35.5-15.9-35.5-35.5v-13.9H404.8z"/>
			<polygon fill="#4E74B3" points="348.5,710.6 359.6,797.5 347.9,874.9 373.2,874.9 421.4,710.6 376.5,710.6 			"/>
			<path fill="#F5B186" d="M411,680.4l13.4,4.8l6.2-17.3l-8.5-3.1c-2.7-1-5.7,0.4-6.7,3.1l0,0L411,680.4z"/>
			<path fill="#F5B186" d="M437.8,683L437.8,683c-1.2,3.4-5,5.2-8.4,4l-4.9-1.8l4.4-12.4l4.9,1.8C437.2,675.8,439,679.5,437.8,683z"
				/>
			<path fill="#F5B186" d="M436.1,672.6L436.1,672.6c-0.5,1.4-2,2.1-3.3,1.6l-3.9-1.4l1.8-4.9l3.9,1.4
				C435.9,669.8,436.6,671.3,436.1,672.6z"/>
			<path fill="#7B4629" d="M410.6,526.6c0,0-18.6,3.1-27.6,4.9v6.6h-3.8c0,0-2.2-4.7-5.6-5c-7.5-0.6-7.8,12.8,3,15.9v12.5
				c0,0-19-5.5-19-32.1c0,0-1.3-23.2,23.5-25.7C409.4,500.9,410.6,526.6,410.6,526.6z"/>
			<path fill="#5E6A84" d="M334.4,576.7l23.1,80.2l25.5-27.6l-6-23.1c-4.5-17.4-20.2-29.5-38.2-29.5H334.4z"/>
		</g>
		<g>
			<path fill="#7B4629" d="M827.9,439.7l-3.7,16.6h47.3c0,0-0.2-8.1-15.5-8.7l-6.7-7.7L827.9,439.7z"/>
			<path fill="#7B4629" d="M811.7,417.4l-8.5,12.9l36.7,24.5c0,0-1.4-16.6-13.1-19.3l-0.1-8.1L811.7,417.4z"/>
			<polygon fill="#414A5E" points="876.1,276.1 803.2,276.1 789,142.2 876.1,142.2 			"/>
			<polygon fill="#5E6A84" points="831.2,142.2 848.2,162.4 863,142.2 			"/>
			<polygon fill="#F5B186" points="803.2,206.9 810.2,237.5 838.3,265.5 851.3,263.3 829.5,230.9 828,202.6 			"/>
			<polygon fill="#45699C" points="803.2,276.1 833.4,373.1 810,417.5 829,429.2 869.1,372.2 847.1,276.1 			"/>
			<rect x="831.2" y="124.4" fill="#F5B186" width="20.3" height="17.7"/>
			<path fill="#F5B186" d="M859.4,83.9v49.5h-8.1c-19.6,0-35.5-15.9-35.5-35.5V83.9H859.4z"/>
			<polygon fill="#4E74B3" points="803.2,276.1 842.5,358.8 826.9,440.3 852.2,440.3 876.1,357.6 876.1,276.1 831.2,276.1 			"/>
			<path fill="#F5B186" d="M837.5,264.7l9.8,10.4l13.3-12.6l-6.2-6.6c-2-2.1-5.3-2.2-7.4-0.2l0,0L837.5,264.7z"/>
			<path fill="#F5B186" d="M860.2,279.1L860.2,279.1c-2.6,2.5-6.8,2.4-9.3-0.2l-3.6-3.8l9.5-9.1l3.6,3.8
				C863,272.4,862.9,276.6,860.2,279.1z"/>
			<path fill="#F5B186" d="M863.4,269.1L863.4,269.1c-1,1-2.7,0.9-3.7-0.1l-2.9-3l3.8-3.6l2.9,3
				C864.5,266.5,864.5,268.1,863.4,269.1z"/>
			<path fill="#7B4629" d="M865.3,92.1c0,0-18.6,3.1-27.6,4.9v6.6h-3.8c0,0-2.2-4.7-5.6-5c-7.5-0.6-7.8,12.8,3,15.9V127
				c0,0-19-5.5-19-32.1c0,0-1.3-23.2,23.5-25.7C864.1,66.3,865.3,92.1,865.3,92.1z"/>
			<polygon fill="#5E6A84" points="789,142.2 796.1,209.1 828.1,202.6 831.2,142.2 			"/>
		</g>
		<g>
			<path fill="#7B4629" d="M544.4,866.4l-7.7,24.3l27.4,0h18.6c0,0-7.1-11.2-19.1-11.2l-2-7.9L544.4,866.4z"/>
			<g>
				<polygon fill="#F5B186" points="550.4,615.5 538.7,684.2 551.5,687.1 575,621.2 				"/>
				<path fill="#F5B186" d="M539,682.2l-3.2,13.9l17.9,4.1l2-8.8c0.6-2.8-1.1-5.6-3.9-6.2h0L539,682.2z"/>
				<path fill="#F5B186" d="M539.6,709.1L539.6,709.1c-3.5-0.8-5.8-4.3-5-7.9l1.2-5.1l12.8,2.9l-1.2,5.1
					C546.7,707.6,543.2,709.9,539.6,709.1z"/>
				<path fill="#F5B186" d="M549.7,706.2L549.7,706.2c-1.4-0.3-2.3-1.7-2-3.1l0.9-4.1l5.1,1.2l-0.9,4.1
					C552.5,705.6,551.1,706.5,549.7,706.2z"/>
			</g>
			<polygon fill="#414A5E" points="630.7,710.6 557.7,710.6 543.6,576.7 630.7,576.7 			"/>
			<polygon fill="#5E6A84" points="585.7,576.7 602.7,596.9 617.5,576.7 			"/>
			<polygon fill="#F5B186" points="567.9,641.9 585.8,665.6 621.3,680.8 631.9,672.9 601.4,644.6 592.1,628.9 			"/>
			<polygon fill="#45699C" points="585.3,710.6 617.7,798.3 626.8,869.5 651.7,866.4 652.6,794.6 629.2,710.6 			"/>
			<rect x="585.7" y="559" fill="#F5B186" width="20.3" height="17.7"/>
			<path fill="#F5B186" d="M614,518.4v49.5H606c-19.6,0-35.5-15.9-35.5-35.5v-13.9H614z"/>
			<polygon fill="#4E74B3" points="557.7,710.6 562.2,797.5 544.3,866.5 569.8,874.9 630.7,710.6 585.7,710.6 			"/>
			<path fill="#F5B186" d="M620.2,680.4l13.4,4.8l6.2-17.3l-8.5-3.1c-2.7-1-5.7,0.4-6.7,3.1l0,0L620.2,680.4z"/>
			<path fill="#F5B186" d="M647,683L647,683c-1.2,3.4-5,5.2-8.4,4l-4.9-1.8l4.4-12.4l4.9,1.8C646.4,675.8,648.2,679.5,647,683z"/>
			<path fill="#F5B186" d="M645.4,672.6L645.4,672.6c-0.5,1.4-2,2.1-3.3,1.6l-3.9-1.4l1.8-4.9l3.9,1.4
				C645.1,669.8,645.8,671.3,645.4,672.6z"/>
			<path fill="#7B4629" d="M619.9,526.6c0,0-18.6,3.1-27.6,4.9v6.6h-3.8c0,0-2.2-4.7-5.6-5c-7.5-0.6-7.8,12.8,3,15.9v12.5
				c0,0-19-5.5-19-32.1c0,0-1.3-23.2,23.5-25.7C618.7,500.9,619.9,526.6,619.9,526.6z"/>
			<path fill="#5E6A84" d="M543.6,576.7l23.1,80.2l25.5-27.6l-6-23.1c-4.5-17.4-20.2-29.5-38.2-29.5H543.6z"/>
			<path fill="#7B4629" d="M626.8,869.5l1.7,17.4l44.3-3.8c0,0-4.8-9.2-19.4-8.2l-8.3-7.7L626.8,869.5z"/>
		</g>
		<g>
			<path fill="#7B4629" d="M771.5,867.2l-6,13.4l25.7,10.3h18.6c0,0-7.1-10.6-19.1-10.6l-2-7.9L771.5,867.2z"/>
			<polygon fill="#414A5E" points="878.3,710.6 805.4,710.6 791.2,576.7 878.3,576.7 			"/>
			<polygon fill="#5E6A84" points="833.3,576.7 850.3,596.9 865.2,576.7 			"/>
			<polygon fill="#F5B186" points="815.5,641.9 833.4,665.6 868.9,680.8 879.5,672.9 849,644.6 839.7,628.9 			"/>
			<polygon fill="#45699C" points="832.9,710.6 850.4,798.3 857.9,873.2 883.1,873.2 885.3,794.6 876.8,710.6 			"/>
			<rect x="833.3" y="559" fill="#F5B186" width="20.3" height="17.7"/>
			<path fill="#F5B186" d="M861.6,518.4v49.5h-8.1c-19.6,0-35.5-15.9-35.5-35.5v-13.9H861.6z"/>
			<polygon fill="#4E74B3" points="805.4,710.6 801.3,797.5 771.5,867.2 796.6,876.2 832.9,802.4 878.3,710.6 833.3,710.6 			"/>
			<path fill="#F5B186" d="M867.8,680.4l13.4,4.8l6.2-17.3l-8.5-3.1c-2.7-1-5.7,0.4-6.7,3.1l0,0L867.8,680.4z"/>
			<path fill="#F5B186" d="M894.6,683L894.6,683c-1.2,3.4-5,5.2-8.4,4l-4.9-1.8l4.4-12.4l4.9,1.8C894.1,675.8,895.8,679.5,894.6,683
				z"/>
			<path fill="#F5B186" d="M893,672.6L893,672.6c-0.5,1.4-2,2.1-3.3,1.6l-3.9-1.4l1.8-4.9l3.9,1.4
				C892.7,669.8,893.5,671.3,893,672.6z"/>
			<path fill="#7B4629" d="M867.5,526.6c0,0-18.6,3.1-27.6,4.9v6.6H836c0,0-2.2-4.7-5.6-5c-7.5-0.6-7.8,12.8,3,15.9v12.5
				c0,0-19-5.5-19-32.1c0,0-1.3-23.2,23.5-25.7C866.3,500.9,867.5,526.6,867.5,526.6z"/>
			<path fill="#5E6A84" d="M791.2,576.7l23.1,80.2l25.5-27.6l-6-23.1c-4.5-17.4-20.2-29.5-38.2-29.5H791.2z"/>
			<path fill="#7B4629" d="M857.9,873.2l1.7,17.4h44.6c0,0-6.4-11.3-20.1-8.7l-8.3-8.7L857.9,873.2z"/>
		</g>
		<g>
			<polygon fill="#F5B186" points="1098.8,627.1 1108.7,653.8 1119.6,685 1103,685 1087.7,657.4 1076.6,636.9 			"/>
			<path fill="#F5B186" d="M1119.6,685l7,9.8v1.3c0,3.5-2.8,6.3-6.3,6.3h-2.9l0,0h-5.9c-2.3,0-4.6-0.9-6.2-2.6l0,0
				c-1.7-1.7-2.6-3.9-2.6-6.2V685H1119.6z"/>
			<path fill="#7B4629" d="M997.1,842.8l-11.3,9.9l30.4,29.2c0,0,3.9-8.3-5.9-20.3l2.1-9.3L997.1,842.8z"/>
			<polygon fill="#414A5E" points="1085.3,710.6 1012.3,710.6 1007.9,576.7 1085.3,576.7 			"/>
			<polygon fill="#5E6A84" points="1040.3,576.7 1057.3,596.9 1072.2,576.7 			"/>
			<polygon fill="#F5B186" points="998.9,632.4 993.8,677.1 1006.3,681.2 1022.9,632.9 			"/>
			<polygon fill="#45699C" points="1039.9,710.6 1033.4,796.2 1033.1,873.2 1062.2,873.2 1066.3,794.6 1083.8,710.6 			"/>
			<rect x="1040.3" y="559" fill="#F5B186" width="20.3" height="17.7"/>
			<path fill="#F5B186" d="M1068.6,518.4v49.5h-8.1c-19.6,0-35.5-15.9-35.5-35.5v-13.9H1068.6z"/>
			<polygon fill="#4E74B3" points="1012.3,710.6 1046.6,789.4 997.1,842.8 1016.9,860.6 1078.1,794.4 1085.3,710.6 1040.3,710.6 			
				"/>
			<path fill="#F5B186" d="M993.9,676.6l-2.5,14.1l18.1,3.2l1.6-8.9c0.5-2.8-1.4-5.5-4.2-6l0,0L993.9,676.6z"/>
			<path fill="#F5B186" d="M995.9,703.4L995.9,703.4c-3.6-0.6-6-4-5.3-7.6l0.9-5.1l13,2.3l-0.9,5.1
				C1002.9,701.6,999.5,704,995.9,703.4z"/>
			<path fill="#F5B186" d="M1005.8,700L1005.8,700c-1.4-0.2-2.4-1.6-2.1-3l0.7-4.1l5.1,0.9l-0.7,4.1
				C1008.6,699.3,1007.3,700.2,1005.8,700z"/>
			<path fill="#7B4629" d="M1074.5,526.6c0,0-18.6,3.1-27.6,4.9v6.6h-3.8c0,0-2.2-4.7-5.6-5c-7.5-0.6-7.8,12.8,3,15.9v12.5
				c0,0-19-5.5-19-32.1c0,0-1.3-23.2,23.5-25.7C1073.3,500.9,1074.5,526.6,1074.5,526.6z"/>
			<path fill="#5E6A84" d="M1004.1,576.7l-5.8,59.6h29.4l6-28.2c3.5-16.1-8.9-31.4-25.4-31.4H1004.1z"/>
			<path fill="#7B4629" d="M1033.4,873.2l-1.8,17.4h48.1c0,0-6.4-11.3-20.1-8.7l-8.3-8.7L1033.4,873.2z"/>
			<polygon fill="#323949" points="1085.2,633.1 1098.8,627.1 1085.2,576.7 			"/>
		</g>
	</g>
</g>
</svg>
